<svg width="20" height="20" viewBox="0 0 20 20" fill="none" xmlns="http://www.w3.org/2000/svg">
<path fill-rule="evenodd" clip-rule="evenodd" d="M9.99998 1.80184C12.6701 1.80184 12.9864 1.812 14.0408 1.86011C15.0158 1.90461 15.5453 2.06752 15.8977 2.20443C16.3645 2.38583 16.6976 2.60257 17.0475 2.95248C17.3974 3.30239 17.6142 3.63555 17.7955 4.10229C17.9325 4.4547 18.0954 4.98419 18.1399 5.95914C18.188 7.01364 18.1982 7.32989 18.1982 10C18.1982 12.6701 18.188 12.9864 18.1399 14.0409C18.0954 15.0159 17.9325 15.5453 17.7955 15.8978C17.6142 16.3645 17.3974 16.6977 17.0475 17.0476C16.6976 17.3975 16.3645 17.6142 15.8977 17.7956C15.5453 17.9325 15.0158 18.0954 14.0408 18.1399C12.9865 18.188 12.6703 18.1982 9.99998 18.1982C7.3297 18.1982 7.01345 18.188 5.95915 18.1399C4.98416 18.0954 4.45466 17.9325 4.10229 17.7956C3.63552 17.6142 3.30236 17.3975 2.95244 17.0476C2.60253 16.6977 2.3858 16.3645 2.20443 15.8978C2.06748 15.5453 1.90457 15.0159 1.86008 14.0409C1.81197 12.9864 1.8018 12.6701 1.8018 10C1.8018 7.32989 1.81197 7.01364 1.86008 5.95918C1.90457 4.98419 2.06748 4.4547 2.20443 4.10229C2.3858 3.63555 2.60253 3.30239 2.95244 2.95248C3.30236 2.60257 3.63552 2.38583 4.10229 2.20443C4.45466 2.06752 4.98416 1.90461 5.95911 1.86011C7.01361 1.812 7.32986 1.80184 9.99998 1.80184ZM9.99998 0C7.28412 0 6.94362 0.0115116 5.87701 0.0601777C4.81259 0.108764 4.08569 0.277786 3.44958 0.525007C2.79199 0.780564 2.23432 1.1225 1.67839 1.67843C1.12246 2.23436 0.780524 2.79203 0.524967 3.44962C0.277746 4.08573 0.108725 4.81263 0.060138 5.87705C0.0114719 6.94362 0 7.28416 0 10C0 12.7159 0.0114719 13.0564 0.060138 14.123C0.108725 15.1874 0.277746 15.9143 0.524967 16.5504C0.780524 17.208 1.12246 17.7657 1.67839 18.3216C2.23432 18.8775 2.79199 19.2195 3.44958 19.475C4.08569 19.7223 4.81259 19.8913 5.87701 19.9399C6.94362 19.9885 7.28412 20 9.99998 20C12.7158 20 13.0564 19.9885 14.1229 19.9399C15.1874 19.8913 15.9143 19.7223 16.5504 19.475C17.208 19.2195 17.7656 18.8775 18.3216 18.3216C18.8775 17.7657 19.2194 17.208 19.475 16.5504C19.7222 15.9143 19.8912 15.1874 19.9398 14.123C19.9885 13.0564 20 12.7159 20 10C20 7.28416 19.9885 6.94362 19.9398 5.87705C19.8912 4.81263 19.7222 4.08573 19.475 3.44962C19.2194 2.79203 18.8775 2.23436 18.3216 1.67843C17.7656 1.1225 17.208 0.780564 16.5504 0.525007C15.9143 0.277786 15.1874 0.108764 14.1229 0.0601777C13.0564 0.0115116 12.7158 0 9.99998 0ZM10.0198 4.88095C7.18172 4.88095 4.88095 7.18173 4.88095 10.0198C4.88095 12.858 7.18172 15.1587 10.0198 15.1587C12.858 15.1587 15.1587 12.858 15.1587 10.0198C15.1587 7.18173 12.858 4.88095 10.0198 4.88095ZM10.0198 13.3556C8.17755 13.3556 6.68405 11.8621 6.68405 10.0198C6.68405 8.17756 8.17755 6.68406 10.0198 6.68406C11.8621 6.68406 13.3556 8.17756 13.3556 10.0198C13.3556 11.8621 11.8621 13.3556 10.0198 13.3556ZM16.5079 4.64284C16.5079 5.30033 15.975 5.83334 15.3175 5.83334C14.66 5.83334 14.127 5.30033 14.127 4.64284C14.127 3.98535 14.66 3.45238 15.3175 3.45238C15.975 3.45238 16.5079 3.98535 16.5079 4.64284Z" fill="white"/>
</svg>
