<?xml version="1.0" encoding="utf-8"?>
<!-- Generator: Adobe Illustrator 23.0.1, SVG Export Plug-In . SVG Version: 6.00 Build 0)  -->
<svg version="1.1" id="Слой_1" xmlns="http://www.w3.org/2000/svg" xmlns:xlink="http://www.w3.org/1999/xlink" x="0px" y="0px"
	 viewBox="0 0 346 391" style="enable-background:new 0 0 346 391;" xml:space="preserve">
<style type="text/css">
	.st0{fill:none;stroke:#B3B3B3;stroke-width:0.7087;stroke-miterlimit:10;}
</style>
<g>
	<path class="st0" d="M302.77,33.38c13.48-10.71,5.26-19.39-4.87-5.15c-10.14-14.24-18.37-5.56-4.89,5.15
		c-13.48,10.71-5.26,19.39,4.89,5.15C308.03,52.78,316.25,44.1,302.77,33.38z M297.9,36.53c-1.73,0-3.14-1.41-3.14-3.14
		c0-1.73,1.41-3.13,3.14-3.13c1.72,0,3.13,1.4,3.13,3.13C301.03,35.12,299.62,36.53,297.9,36.53z"/>
</g>
<g>
	<path class="st0" d="M126.79,28.21c-0.87-4.56-2.75-8.57-5.93-11.96c-1.71-1.83-1.71-1.83-3.98-0.72c-0.28,0.13-0.55,0.3-0.83,0.41
		c-0.77,0.29-0.82,0.72-0.47,1.44c0.83,1.74,1.67,3.48,2.29,5.3c0.36,1.06,0.79,2.42-0.23,3.31c-0.87,0.76-1.99,0.19-2.92-0.23
		c-2.88-1.29-5.74-2.64-8.62-3.95c-0.27-0.12-0.68-0.19-0.94-0.07c-0.97,0.44-1.91,0.95-2.85,1.44c-1.5,0.77-2.96,1.63-4.5,2.28
		c-2.43,1.01-4.16-0.43-3.68-3c0.26-1.35,0.7-2.65,1.01-3.99c0.15-0.62,0.54-1.33-0.31-1.84c-1.16-0.67-2.31-1.37-3.42-2.12
		c-0.61-0.39-1.05-0.43-1.63,0.09c-5.14,4.55-7.67,10.3-7.96,17.49c0.1,0.87,0.21,2.11,0.4,3.33c2.13,13.13,14.92,20.64,25.99,18.65
		C121.3,51.73,128.86,39.05,126.79,28.21z M91.36,43.48c-0.21,0.18-0.47,0.27-0.72,0.27c-0.31,0-0.62-0.13-0.85-0.39
		c-9.32-10.98-1.96-21.62-1.89-21.74c0.36-0.5,1.05-0.61,1.56-0.26c0.5,0.35,0.61,1.05,0.26,1.54c-0.28,0.39-6.41,9.39,1.76,19.01
		C91.89,42.38,91.82,43.08,91.36,43.48z"/>
	<path class="st0" d="M93.33,12.51c1.5,0.97,2.48,1.48,4.05,2.33c1.18,0.64,1.25,0.83,0.7,2.09c-0.6,1.38-1.19,2.78-1.63,4.22
		c-0.17,0.55-0.15,1.45,0.18,1.79c0.74,0.79,2.27-0.03,2.58-0.22c2.21-1.38,3.74-2.33,5.45-3.55c0.59-0.42,1.07-0.43,1.7-0.09
		c2.07,1.15,4.53,2.16,6.74,3.36c1.48,0.8,2.94-0.46,1.84-2.02c-0.71-1.01-3.28-4.5-3.22-5.03c0.06-0.53,1.74-1.13,2.48-1.53
		c1.05-0.58,2.08-0.8,3.02-1.53c0.37-0.29,0.6-1.13,0.46-1.6c-0.11-0.39-0.77-0.8-1.3-0.88c-0.35-0.05-0.75-0.05-1.13-0.02
		c-1.57,0.13-3.92,0.46-4.32,0.42c-0.4-0.04-0.54-0.04-0.52-0.27c0.02-0.24,0.41-0.53,0.66-0.72c1.37-1.04,2.76-2.04,4.12-3.1
		c0.32-0.25,0.75-0.71,0.71-1.02c-0.14-0.97-0.6-1.86-1.56-2.29c-0.86-0.38-1.67-0.09-2.25,0.58c-1.24,1.42-2.4,2.9-3.59,4.37
		c-0.22,0.27-0.4,0.56-0.76,0.57c-0.36,0.01-0.9-2.59-1.42-3.97c-0.25-0.67-0.65-1.41-1.44-1.19c-0.5,0.14-1.01,0.77-1.22,1.29
		c-0.68,1.65-1.21,3.36-1.86,5.02c-0.1,0.26-0.51,0.59-0.75,0.58c-1.51-0.11-3-0.37-4.51-0.47c-1.12-0.07-3.84-0.98-4.49,0.4
		C91.4,11.4,92.95,12.26,93.33,12.51z"/>
</g>
<g>
	<path class="st0" d="M178.18,373.18c13.48-10.71,5.26-19.39-4.88-5.15c-10.14-14.24-18.36-5.56-4.87,5.15
		c-13.48,10.71-5.27,19.39,4.87,5.15C183.44,392.57,191.66,383.89,178.18,373.18z M173.3,376.31c-1.73,0-3.13-1.4-3.13-3.13
		s1.4-3.13,3.13-3.13s3.14,1.4,3.14,3.13S175.03,376.31,173.3,376.31z"/>
</g>
<g>
	<path class="st0" d="M244.46,265.19c9.43-7.49,3.68-13.56-3.42-3.6c-7.09-9.97-12.84-3.89-3.41,3.6c-9.43,7.5-3.68,13.57,3.41,3.61
		C248.14,278.76,253.89,272.68,244.46,265.19z M241.04,267.38c-1.2,0-2.19-0.98-2.19-2.2c0-1.2,0.99-2.19,2.19-2.19
		c1.21,0,2.2,0.98,2.2,2.19C243.24,266.4,242.25,267.38,241.04,267.38z"/>
</g>
<g>
	<path class="st0" d="M250.1,338.41c-0.87-4.56-2.75-8.58-5.93-11.96c-1.71-1.83-1.71-1.83-3.98-0.72c-0.28,0.13-0.55,0.3-0.83,0.4
		c-0.77,0.3-0.82,0.73-0.47,1.45c0.83,1.73,1.67,3.48,2.29,5.3c0.36,1.06,0.79,2.41-0.23,3.3c-0.87,0.77-1.99,0.2-2.92-0.22
		c-2.88-1.29-5.73-2.64-8.62-3.95c-0.28-0.12-0.69-0.19-0.94-0.07c-0.98,0.44-1.91,0.95-2.86,1.44c-1.49,0.77-2.95,1.63-4.49,2.27
		c-2.43,1.02-4.16-0.41-3.68-3c0.26-1.34,0.7-2.64,1.01-3.98c0.15-0.63,0.54-1.33-0.31-1.84c-1.16-0.68-2.31-1.38-3.42-2.12
		c-0.61-0.4-1.05-0.42-1.63,0.09c-5.14,4.55-7.67,10.3-7.96,17.48c0.1,0.87,0.21,2.11,0.4,3.32c2.13,13.14,14.92,20.65,25.99,18.66
		C244.6,361.93,252.16,349.23,250.1,338.41z M214.66,353.67c-0.21,0.18-0.47,0.26-0.72,0.26c-0.31,0-0.63-0.12-0.85-0.38
		c-9.33-10.98-1.96-21.63-1.89-21.74c0.36-0.5,1.05-0.61,1.56-0.26c0.5,0.35,0.61,1.05,0.26,1.54c-0.28,0.39-6.42,9.39,1.76,19.01
		C215.19,352.57,215.13,353.28,214.66,353.67z"/>
	<path class="st0" d="M216.64,322.7c1.5,0.97,2.48,1.48,4.05,2.33c1.18,0.64,1.25,0.83,0.7,2.09c-0.6,1.38-1.19,2.78-1.63,4.22
		c-0.17,0.55-0.15,1.45,0.18,1.79c0.74,0.79,2.27-0.03,2.58-0.22c2.21-1.38,3.74-2.33,5.45-3.55c0.59-0.42,1.07-0.43,1.7-0.09
		c2.07,1.15,4.53,2.16,6.74,3.36c1.48,0.8,2.94-0.46,1.84-2.02c-0.71-1.01-3.28-4.5-3.22-5.03c0.06-0.53,1.74-1.13,2.48-1.53
		c1.05-0.58,2.08-0.8,3.02-1.53c0.37-0.29,0.6-1.13,0.46-1.6c-0.11-0.39-0.77-0.8-1.3-0.88c-0.35-0.05-0.75-0.05-1.13-0.02
		c-1.57,0.13-3.92,0.46-4.32,0.42c-0.4-0.04-0.54-0.04-0.52-0.27c0.02-0.24,0.41-0.53,0.66-0.72c1.37-1.04,2.76-2.04,4.12-3.1
		c0.32-0.25,0.75-0.71,0.71-1.02c-0.14-0.97-0.6-1.86-1.56-2.29c-0.86-0.38-1.67-0.09-2.25,0.58c-1.24,1.42-2.4,2.9-3.59,4.37
		c-0.22,0.27-0.4,0.56-0.76,0.57c-0.36,0.01-0.9-2.59-1.42-3.97c-0.25-0.67-0.65-1.41-1.44-1.19c-0.5,0.14-1.01,0.77-1.22,1.29
		c-0.68,1.65-1.21,3.36-1.86,5.02c-0.1,0.26-0.51,0.59-0.75,0.58c-1.51-0.11-3-0.37-4.51-0.47c-1.12-0.07-3.84-0.98-4.49,0.4
		S216.25,322.45,216.64,322.7z"/>
</g>
<g>
	<path class="st0" d="M247.48,183.2c-1.25-2.48-3.41-3.92-5.71-5.2c-0.32-0.18-0.92-0.07-1.31,0.09c-0.88,0.39-1.66,0.98-2.54,1.35
		c-3.47,1.4-7.09,1.63-10.76,1.28c-2.7-0.25-5.17-1.08-7.34-2.73c-0.31-0.24-0.83-0.34-1.22-0.29c-4.23,0.66-8.34,5.19-7.73,10.18
		c0.29,2.34,1.17,3.67,1.89,4.96c3.01,5.33,5.62,9.94,8.84,15.14c1.77,2.87,4.39,4.72,7.97,4.91c1.34-0.02,1.7-0.21,2.51-0.47
		c2.6-0.83,4.57-2.48,5.93-4.84c2.64-4.55,5.31-9.1,7.9-13.68c1.05-1.85,2.11-3.71,2.33-5.9
		C248.41,186.32,248.27,184.74,247.48,183.2z M231.99,189.4c0.01,1.45-1.05,2.49-2.54,2.49c-1.31-0.01-2.27-0.97-2.26-2.26
		c0.01-1.27,1.13-2.32,2.42-2.31C230.91,187.33,231.99,188.28,231.99,189.4z M226,196.92c0.03,1.15-1.06,2.23-2.24,2.24
		c-1.31,0-2.51-1.07-2.52-2.23c-0.01-1.3,1.04-2.3,2.4-2.3C224.81,194.61,225.98,195.74,226,196.92z M219.02,185.01
		c1.2-0.01,2.41,1.17,2.41,2.37c0,1.17-1.16,2.37-2.29,2.35c-1.3-0.02-2.31-1.04-2.3-2.28C216.85,186.19,217.9,185.01,219.02,185.01
		z M229.76,202.38c1.43,0.03,2.27,0.87,2.27,2.24c-0.01,1.32-1.04,2.32-2.37,2.32c-1.22-0.01-2.39-1.02-2.41-2.08
		C227.23,203.57,228.48,202.34,229.76,202.38z M235.33,194.79c1.15-0.04,2.36,1.13,2.37,2.29c0.01,1.18-1.06,2.42-2.09,2.44
		c-1.23,0.02-2.43-1.18-2.44-2.48C233.16,195.98,234.27,194.83,235.33,194.79z M239.3,189.76c-1.21-0.01-2.5-1.16-2.51-2.26
		c-0.02-1.45,1.03-2.53,2.43-2.5c1.32,0.03,2.39,1.1,2.36,2.36C241.55,189.05,240.85,189.78,239.3,189.76z"/>
	<path class="st0" d="M217.48,170.04c0.7,1.96,1.87,3.74,3.46,5.08c2.63,2.2,5.56,2.77,8.68,2.9c2.56,0.11,5-0.3,7.29-1.5
		c3.18-1.66,4.72-4.59,5.98-7.75c0.28-0.71-0.06-0.91-0.73-0.93c-2.07-0.08-4.04,0.25-5.88,1.25c-0.62,0.34-1.24,0.66-1.89,1
		c-0.38,0.2-0.84-0.03-0.93-0.45c-0.55-2.58-1.55-4.85-3.07-6.91c-0.97-1.32-1.3-1.33-2.16,0.08c-1.23,2.02-2.34,4.1-2.78,6.33
		c-0.08,0.39-0.47,0.62-0.85,0.52c-1.89-0.52-3.74-1.09-5.64-1.49c-2.06-0.44-2.22-0.2-1.54,1.71
		C217.44,169.93,217.46,169.99,217.48,170.04z"/>
</g>
<g>
	<g>
		<path class="st0" d="M259.39,72.44c-1.41-4.19-5.88-7.99-10.46-7.68c-3.35,0.23-6.11,1.11-8.18,3.79
			c-0.36,0.47-0.74,0.9-1.11,1.36c-0.44,0.55-0.96,0.62-1.56,0.3c-0.62-0.33-0.78-0.87-0.53-1.49c0.18-0.44,0.36-0.91,0.67-1.25
			c0.74-0.82,1.53-1.57,2.33-2.32c0.68-0.65,0.69-0.99-0.05-1.57c-1.31-1.03-2.79-1.57-4.44-1.78c-3.13-0.39-5.96,0.14-8.33,2.34
			c-0.41,0.39-0.68,0.48-1.21,0.2c-2.63-1.41-5.53-1.85-8.33-1.1c-6.03,1.61-9.29,6.62-7.97,13.27c0.94,4.84,4.88,7.76,9.85,7.69
			c2.08-0.02,2.05-0.02,2.04,2.06c-0.01,5.37-0.02,10.75,0,16.13c0.01,1.15,0.59,1.74,1.71,1.74c7.37,0.02,14.74,0.02,22.11,0
			c1.22,0,1.58-0.4,1.59-1.65c0.01-2.82,0.03-5.65,0.03-8.47c0-2.45-0.02-4.89-0.02-7.34c0-0.44-0.06-0.84,0.65-0.9
			c1.65-0.14,3.35-0.23,4.93-0.68c2.49-0.75,4.35-2.44,5.45-4.79c0.59-1.24,0.91-2.6,1.36-3.91V74.5
			C259.76,73.82,259.62,73.11,259.39,72.44z M221.59,67.56c-5.67,0.33-6.8,4.98-6.81,5.03c-0.12,0.56-0.63,0.94-1.19,0.94
			c-0.08,0-0.18,0-0.27-0.02c-0.65-0.16-1.07-0.81-0.91-1.47c0.51-2.24,3.06-6.56,9.04-6.92c0.66-0.03,1.25,0.48,1.3,1.15
			C222.78,66.94,222.27,67.51,221.59,67.56z M230.58,99.22c0,0.67-0.55,1.22-1.22,1.22c-0.67,0-1.22-0.55-1.22-1.22V85.81
			c0-0.67,0.55-1.22,1.22-1.22c0.67,0,1.22,0.55,1.22,1.22V99.22z M241.94,99.22c0,0.67-0.55,1.22-1.22,1.22
			c-0.67,0-1.22-0.55-1.22-1.22V85.81c0-0.67,0.55-1.22,1.22-1.22c0.67,0,1.22,0.55,1.22,1.22V99.22z"/>
		<path class="st0" d="M247.26,107.14c-1.34-0.04-2.68-0.08-4.02-0.08c-5.27-0.01-10.54-0.01-15.81,0
			c-1.78,0.01-3.58-0.01-5.35,0.15c-1.6,0.14-2.47,1.3-2.36,2.83c0.08,1.1,1.38,2.09,2.77,2.1c4.03,0,8.06,0,12.09,0
			c0,0,0-0.01,0-0.01c3.96,0,7.93,0,11.89-0.01c0.44,0,0.9-0.03,1.33-0.14c1.47-0.39,2.14-1.39,2-2.9
			C249.71,108.02,248.64,107.19,247.26,107.14z"/>
	</g>
</g>
<g>
	<g>
		<path class="st0" d="M202.31,12.76c-4.81,0.17-9.6,0.59-14.31,1.7c-6.15,1.43-11.93,3.69-16.99,7.61
			c-2.69,2.09-4.85,4.51-6.17,7.69c-1.81,4.38-2.12,8.73-0.11,13.11c1.86,4.06,5.16,6.62,9.2,8.11c4.3,1.59,8.66,1.53,12.75-0.89
			c3.63-2.17,6.65-4.97,8.9-8.6c2.33-3.76,5.37-10.09,9.2-11.8c4.06-1.8,7.73-3.96,8.29-6.74
			C214.75,14.62,205.72,12.64,202.31,12.76z M169.71,37.68c0.04,0.61-0.41,1.15-1.03,1.19c-0.03,0-0.05,0.01-0.08,0.01
			c-0.58,0-1.07-0.45-1.11-1.03c-0.01-0.17-0.27-4,2.21-8.24c4.09-6.98,12.33-9.56,18.53-10.48c0.6-0.09,1.17,0.32,1.25,0.93
			c0.09,0.6-0.32,1.17-0.93,1.27c-8.19,1.22-14.05,4.48-16.94,9.41C169.48,34.38,169.7,37.64,169.71,37.68z M183.3,36.55
			c0,2.3-1.87,4.17-4.18,4.17c-2.3,0-4.18-1.87-4.18-4.17c0-2.31,1.88-4.18,4.18-4.18C181.43,32.37,183.3,34.23,183.3,36.55z
			 M193.56,37.7c-2.74,5.34-6.25,8.7-10.43,10c-1.37,0.43-2.67,0.58-3.86,0.58c-3.36,0-5.74-1.27-5.88-1.34
			c-0.54-0.29-0.75-0.96-0.46-1.5c0.29-0.54,0.96-0.75,1.5-0.46c0.06,0.03,3.74,1.94,8.07,0.58c3.58-1.12,6.63-4.11,9.07-8.87
			c0.28-0.55,0.95-0.77,1.49-0.49C193.63,36.48,193.84,37.16,193.56,37.7z"/>
		<path class="st0" d="M230.09,15.31c-0.28-0.23-0.87-0.45-1.35-0.66c-0.28-0.12-0.37-0.49-0.17-0.72c1.8-2.05,1.64-3.78,0.51-5.11
			c-1.08-1.28-2.51-1.56-4.13-1.27c-1.83,0.33-3.4,2.35-2.72,4.49c0.09,0.27-0.16,0.55-0.43,0.64c-1.98,0.65-3.9,1.3-5.85,1.9
			c-0.86,0.27-0.99,0.65-0.63,1.58c0.4,1.05,0.7,2.14,0.8,3.26c0.1,1.09,0.43,1.42,1.38,1.2c1.81-0.41,3.63-0.78,5.45-1.16
			c0.54-0.11,0.91-0.09,1.2,0.57c0.57,1.32,2.24,2.08,3.81,1.95c1.65-0.15,2.75-1.06,3.33-2.55
			C231.81,18.15,231.19,16.19,230.09,15.31z"/>
	</g>
</g>
<g>
	<path class="st0" d="M67.06,217.34c-1.96-6.11-9.26-9.89-14.68-7.55c-2.52,1.09-4.73,2.36-6.01,4.86
		c-0.62,1.21-1.17,2.48-1.68,3.75c-0.31,0.77-0.82,1.11-1.6,0.94c-0.81-0.18-0.65-0.89-0.59-1.44c0.23-2.06,1.08-3.88,2.32-5.53
		c2.77-3.68,6.45-5.6,11.06-5.57c1.43,0.01,2.86,0.34,4.28,0.6c0.65,0.12,0.94-0.06,0.86-0.68c-0.28-2.12-1.88-6.83-7.27-11.21
		c-3.56-2.87-7.49-4.19-11.95-4.32c-2.53-0.07-4.96,0.37-7.38,1.07c-3.34,0.94-6.19,2.67-8.53,5.18c-3.42,3.64-4.83,8.22-5.41,13.03
		c-0.25,2.06,0.1,4.25,0.48,6.33c0.71,4.02,2.83,7.35,5.64,10.23c3.33,3.39,7.44,5.47,12.15,5.95c3,0.31,9.07,0.19,9.07,0.26
		c2.41,0,4.83,0.13,7.23-0.04c1.9-0.15,3.89-0.38,5.63-1.08C65.9,230,69.02,223.43,67.06,217.34z"/>
	<path class="st0" d="M77.65,200.45c-0.38-0.06-0.71-0.31-0.86-0.66c-0.95-2.34-2.1-3.56-4.67-3.58c-1.1-0.14-2.83,0.64-3.63,1.52
		c-1.3,1.42-1.52,3.03-1.12,4.95c0.13,0.62-0.02,0.95-0.43,1.33c-1,0.95-2,1.9-2.93,2.91c-0.53,0.58-0.68,1.3-0.06,1.94
		c0.49,0.5,1.08,0.49,1.56,0.01c1.41-1.41,2.79-2.84,4.15-4.3c0.55-0.59,0.65-1.28,0.33-2.1c-0.62-1.58,0.61-3.36,2.39-3.26
		c1.22,0.07,2.18,1.07,2.35,2.27c0.13,0.92,0.56,1.28,1.53,1.36c0.9,0.07,2.45,0.63,2.68,1.63c0.57,2.53-1.98,4.01-4.5,3.34
		c-0.59-0.16-1.55-0.19-1.9,0.16c-1.54,1.52-2.95,3.17-4.34,4.83c-0.49,0.58-0.22,1.17,0.39,1.57c0.75,0.49,1.37,0.24,1.91-0.38
		c0.94-1.1,1.9-2.18,2.79-3.32c0.39-0.49,0.73-0.58,1.37-0.51c1.13,0.11,2.44,0.25,3.41-0.19c2.53-0.92,3.25-2.3,3.62-4.7
		C82.04,203.07,79.98,200.81,77.65,200.45z"/>
	<g>
		<path class="st0" d="M40.74,194.37c-0.01,0-0.01,0-0.02,0c-11.25,0.16-14.95,9.57-14.99,9.66c-0.22,0.57,0.07,1.21,0.64,1.43
			c0.13,0.05,0.26,0.07,0.4,0.07c0.45,0,0.87-0.27,1.04-0.71c0.13-0.33,3.24-8.09,12.95-8.23c0.61-0.01,1.1-0.51,1.09-1.13
			C41.84,194.86,41.35,194.37,40.74,194.37z"/>
		<path class="st0" d="M47.61,195.18c-1.33-0.84-2.75-0.77-2.9-0.76c-0.61,0.04-1.06,0.56-1.03,1.17c0.04,0.61,0.57,1.07,1.17,1.04
			c0.01,0,0.85-0.04,1.58,0.42c0.18,0.12,0.39,0.17,0.59,0.17c0.37,0,0.73-0.18,0.94-0.52C48.28,196.19,48.13,195.5,47.61,195.18z"
			/>
	</g>
</g>
<g>
	<path class="st0" d="M321.13,103.85c-1.26-3.16-3.65-5.14-7.06-5.35c-2.93-0.19-5.9-0.04-8.84,0.18c-4.96,0.36-9.6,1.92-14.01,4.15
		c-5.65,2.86-10.56,6.68-14.51,11.67c-4.37,5.51-7.33,11.66-8.71,18.55c-0.9,4.41-1.09,6.44-0.22,9.39
		c0.52,1.77,2.47,5.17,7.01,5.86c5.11,0.63,9.66-2.45,10.07-8.32c0.23-3.18,0.97-6.24,2.35-9.12c3.59-7.49,9.52-12.19,17.51-14.26
		c2.58-0.67,5.24-0.82,7.95-0.63c2.77,0.2,5.25-0.87,7.06-3.13C321.92,110.11,322.43,107.08,321.13,103.85z M312.19,103.14
		c-14.75,0.12-25.82,5.77-32.9,16.79c-5.3,8.24-6.25,16.52-6.26,16.6c-0.06,0.56-0.54,0.99-1.1,0.99c-0.04,0-0.08,0-0.12-0.01
		c-0.61-0.06-1.05-0.61-0.98-1.22c0.04-0.35,1.03-8.88,6.6-17.56c5.16-8.04,15.39-17.65,34.75-17.81c0.01,0,0.01,0,0.01,0
		c0.61,0,1.11,0.5,1.11,1.1C313.3,102.63,312.81,103.14,312.19,103.14z"/>
	<path class="st0" d="M276.8,150.8c-1.9,0.38-3.7,0-5.39-0.86c-0.84-0.43-1.32-0.17-1.76,0.55c-1.07,1.76-0.89,3.71-0.77,5.62
		c0.04,0.57,0.53,0.9,1.14,0.45c0.94-0.7,1.87-1.41,2.79-2.1c0.43-0.32,1.01-0.33,1.44-0.01c0.8,0.58,1.6,1.17,2.41,1.74
		c0.49,0.34,1.13,0.38,1.17-0.35c0.08-1.46,0-2.94-0.07-4.41C277.73,150.88,277.34,150.69,276.8,150.8z"/>
	<path class="st0" d="M327.13,107.87c0.91-0.72,1.76-1.53,2.58-2.36c0.71-0.72,0.55-1.3-0.48-1.47c-1.35-0.22-2.72-0.3-4.08-0.39
		c-0.62-0.04-0.97,0.3-0.9,0.96c0.06,0.65,0.45,1.31,0.29,2.95c-0.19,1.98-0.82,2.76-0.98,3.66c-0.1,0.57,0.2,1.15,0.76,1.3
		c0,0,0.01,0,0.01,0c1.12,0.3,2.25,0.57,3.39,0.79c0.29,0.06,0.74,0.02,0.89-0.16c0.16-0.19,0.17-0.66,0.05-0.92
		c-0.52-1.11-1.08-2.21-1.7-3.28C326.68,108.49,326.65,108.25,327.13,107.87z"/>
</g>
<g>
	<path class="st0" d="M117.17,124.13c-1.13-8.75-10.45-14.77-22.02-14.39c-8.75,0.28-18.36,4.79-20.61,13.54
		c-1.23,4.77,0.56,12.42,5.92,12.42c5.65,0,6.78-4.52,5.65-7.62c-1.84-5.03,7.05-5.93,5.64,0c-1.08,4.53-7.9,22.59,3.95,22.59
		c11.86,0,7.49-12,5.08-22.59c-1.41-6.21,7.06-5.64,5.08,0c-1.5,4.29,1.7,8.18,5.65,7.62C116,135.06,117.97,130.31,117.17,124.13z
		 M87.55,117.05c-5.31,1.77-6.94,5.95-6.95,5.99c-0.17,0.45-0.59,0.73-1.05,0.73c-0.12,0-0.26-0.02-0.38-0.07
		c-0.58-0.22-0.87-0.86-0.65-1.43c0.08-0.21,2.02-5.22,8.33-7.32c0.58-0.2,1.21,0.12,1.41,0.71
		C88.44,116.23,88.13,116.86,87.55,117.05z"/>
</g>
<g>
	<path class="st0" d="M314.57,159.74c-8.38-2.78-17.84,3.02-22.52,13.6c-3.54,8.01-3.64,18.62,3.27,24.44
		c3.76,3.18,11.44,4.88,13.76,0.05c2.45-5.09-1.13-8.07-4.42-8.4c-5.33-0.53-2.29-8.93,2.45-5.08c3.62,2.94,16.93,16.91,22.07,6.23
		c5.14-10.69-7.57-11.95-18.15-14.37c-6.21-1.42-2.02-8.81,2.2-4.58c3.22,3.22,8.11,2.01,9.32-1.79
		C323.91,165.54,320.49,161.7,314.57,159.74z M295.35,183.38c-0.7,5.55,2.36,8.83,2.39,8.86c0.33,0.34,0.4,0.85,0.2,1.26
		c-0.05,0.11-0.13,0.22-0.23,0.31c-0.45,0.43-1.15,0.41-1.57-0.03c-0.15-0.16-3.82-4.08-2.99-10.68c0.07-0.61,0.64-1.04,1.25-0.97
		C295,182.22,295.43,182.77,295.35,183.38z"/>
</g>
<g>
	<path class="st0" d="M128.82,316.73c-6.39-5.98-16.38-9.58-24.15-4.99c-4.25,2.51-8.39,9.19-4.59,12.97
		c3.99,3.99,7.99,1.6,9.38-1.39c2.27-4.85,9.19,0.8,3.99,3.99c-3.96,2.44-21.55,10.37-13.17,18.76c8.38,8.38,13.77-3.18,19.56-12.38
		c3.4-5.38,8.99,1.01,3.6,3.6c-4.11,1.97-4.59,6.99-1.4,9.39c3.62,2.71,8.37,0.75,12.17-4.2
		C139.6,335.5,137.27,324.65,128.82,316.73z M120.75,316.69c-0.45,0.5-1.21,0.55-1.72,0.1c-4.25-3.79-8.33-1.3-8.37-1.26
		c-0.5,0.31-1.12,0.22-1.51-0.18c-0.06-0.06-0.12-0.13-0.18-0.21c-0.35-0.57-0.19-1.33,0.39-1.69c1.94-1.22,6.8-2.48,11.29,1.51
		C121.14,315.41,121.2,316.19,120.75,316.69z"/>
</g>
<g>
	<path class="st0" d="M167,187.53c3.47-3.47,2.5-9.11,2.43-11.93c-0.14-5.65-12-16.23-19.83-20.04c-3.58-1.74-7.21-0.2-10.16,4.23
		c-2.26,3.39-15.88,23.29-20.11,30.49"/>
	<path class="st0" d="M160.91,171.82c-8.4-8.4-13.22-10.02-16.44-6.79c-3.12,3.11-22.01,22-24.97,24.96
		c-0.01,0.01-0.01,0.01-0.01,0.01c-0.09,0.09-0.17,0.17-0.23,0.23c-0.96,0.97,4.1,6.93,9.75,12.42c2.46-1.93,5.71-1.97,7.95,0.27
		c1.78,1.78,2.41,5.44,0.85,7.37c2.25,1.63,3.95,2.47,4.51,1.92c2.32-2.32,20.91-20.92,25.02-25.02c0.92-0.92,1.44-1.86,1.6-2.85
		v-0.01c0.01-0.01,0.01-0.03,0.01-0.04l0.01-0.01C169.53,180.85,166.02,176.92,160.91,171.82z M131.33,186.11
		c1.56-1.55,4.08-1.55,5.63,0c1.56,1.56,1.56,4.08,0,5.63c-1.56,1.56-4.08,1.56-5.63,0C129.77,190.19,129.77,187.67,131.33,186.11z
		 M145.81,190.4c1.48-1.48,3.88-1.48,5.36,0c1.48,1.48,1.48,3.88,0,5.36c-1.48,1.48-3.88,1.48-5.36,0
		C144.32,194.28,144.32,191.89,145.81,190.4z M153.59,179.95c-1.19,1.18-3.11,1.18-4.29,0c-1.18-1.18-1.18-3.11,0-4.29
		c1.18-1.18,3.1-1.18,4.29,0C154.77,176.84,154.77,178.77,153.59,179.95z"/>
</g>
<g>
	<path class="st0" d="M157.3,79.66c-4.66,0-8.42,3.77-8.42,8.43c0,4.66,3.76,8.43,8.42,8.43c4.66,0,8.43-3.78,8.43-8.43
		C165.73,83.43,161.95,79.66,157.3,79.66z M155.28,87.31c-1.3,0-2.34-1.05-2.34-2.34c0-1.29,1.05-2.34,2.34-2.34
		c1.29,0,2.33,1.06,2.33,2.34C157.61,86.26,156.56,87.31,155.28,87.31z"/>
	<path class="st0" d="M148.54,96.17c-4.66,0-8.42,3.77-8.42,8.43c0,4.66,3.76,8.43,8.42,8.43c4.66,0,8.43-3.77,8.43-8.43
		C156.97,99.94,153.19,96.17,148.54,96.17z M146.6,103.3c-1.3,0-2.34-1.06-2.34-2.34c0-1.3,1.05-2.34,2.34-2.34s2.34,1.05,2.34,2.34
		C148.94,102.24,147.89,103.3,146.6,103.3z"/>
	<path class="st0" d="M174.46,100.78c2.18-5.92-1.41-11.36-6.62-11.98c0.25,2.66-2.14,9.47-9.6,9.6c0.6,5.75,6.97,9.08,12.85,6.13
		C172.43,103.87,173.94,102.2,174.46,100.78z"/>
	<path class="st0" d="M147,84.77c0,0-15.59,0.04-15.43,3.99c0.09,2.21,5.55,5.53,16.55,4.7C146.5,91.19,146.15,87.17,147,84.77z"/>
	<path class="st0" d="M147.98,82.8c0,0-8.02-12.16-5.94-14.03s8.74,3.95,12.9,8.74C152.45,78.03,149.43,79.98,147.98,82.8z"/>
</g>
<g>
	<path class="st0" d="M323.31,352.99c-4.66,0-8.43,3.77-8.43,8.43c0,4.66,3.78,8.43,8.43,8.43c4.66,0,8.43-3.78,8.43-8.43
		C331.74,356.77,327.97,352.99,323.31,352.99z M321.28,360.64c-1.3,0-2.34-1.05-2.34-2.34s1.05-2.34,2.34-2.34s2.34,1.05,2.34,2.34
		S322.57,360.64,321.28,360.64z"/>
	<path class="st0" d="M314.55,369.5c-4.66,0-8.43,3.77-8.43,8.43s3.78,8.43,8.43,8.43c4.66,0,8.43-3.77,8.43-8.43
		S319.2,369.5,314.55,369.5z M312.6,376.63c-1.29,0-2.33-1.05-2.33-2.33c0-1.3,1.05-2.34,2.33-2.34c1.3,0,2.34,1.05,2.34,2.34
		C314.94,375.58,313.89,376.63,312.6,376.63z"/>
	<path class="st0" d="M340.46,374.12c2.18-5.92-1.41-11.36-6.62-11.98c0.25,2.66-2.14,9.47-9.6,9.6c0.6,5.75,6.97,9.08,12.85,6.13
		C338.44,377.2,339.94,375.53,340.46,374.12z"/>
	<path class="st0" d="M313,358.1c0,0-15.59,0.04-15.43,3.99c0.09,2.21,5.55,5.53,16.55,4.7C312.51,364.53,312.15,360.5,313,358.1z"
		/>
	<path class="st0" d="M313.99,356.14c0,0-8.02-12.16-5.94-14.03c2.08-1.87,8.74,3.95,12.9,8.74
		C318.45,351.37,315.43,353.32,313.99,356.14z"/>
</g>
<g>
	<path class="st0" d="M35.31,64.83c-3.63-3.44-6.8-5.85-9.35-7.79c-2.47-1.89-4.23-3.24-5.1-4.57L7.55,92.12
		c-1.44,4.3,2.65,8.4,6.95,6.96l34.64-11.62l0.02-0.01c0.22-0.17,0.5-0.45,0.57-1.17C50.08,82.24,43.74,72.83,35.31,64.83z
		 M16.76,91.35c-0.57,0-1.04-0.47-1.04-1.05c0-0.57,0.47-1.04,1.04-1.04c0.58,0,1.05,0.47,1.05,1.04
		C17.81,90.88,17.34,91.35,16.76,91.35z M16.78,83.08c-0.58,0-1.05-0.47-1.05-1.05c0-0.58,0.47-1.05,1.05-1.05
		c0.57,0,1.04,0.47,1.04,1.05C17.82,82.62,17.35,83.08,16.78,83.08z M24.46,79.43c-0.82,0-1.48-0.67-1.48-1.49s0.66-1.48,1.48-1.48
		c0.83,0,1.49,0.66,1.49,1.48S25.29,79.43,24.46,79.43z M24.54,70.67c-1.17,0-2.12-0.94-2.12-2.12c0-1.17,0.94-2.12,2.12-2.12
		c1.17,0,2.12,0.94,2.12,2.12C26.65,69.73,25.71,70.67,24.54,70.67z M28.14,87.32c-0.57,0-1.04-0.47-1.04-1.05
		c0-0.57,0.47-1.05,1.04-1.05c0.58,0,1.05,0.48,1.05,1.05C29.18,86.85,28.72,87.32,28.14,87.32z M30.4,74.47
		c-0.58,0-1.05-0.47-1.05-1.04c0-0.58,0.47-1.05,1.05-1.05s1.05,0.47,1.05,1.05C31.44,74,30.98,74.47,30.4,74.47z M38.51,86.13
		c-0.82,0-1.49-0.66-1.49-1.48c0-0.83,0.67-1.49,1.49-1.49c0.82,0,1.49,0.66,1.49,1.49C40,85.47,39.33,86.13,38.51,86.13z M41.68,62
		c-9.45-9.17-15.54-12.4-17.93-12.4h-0.08c-0.17,0-0.47,0.03-0.6,0.18c-0.47,0.51-0.45,0.76-0.44,0.84
		c0.08,0.93,2.26,2.59,4.79,4.51c2.45,1.88,5.82,4.44,9.54,7.96c7.88,7.47,15.61,17.88,15.16,23.36l4.62-1.54L56.7,84.8
		c0.16-0.05,0.23-0.11,0.28-0.33C57.63,81.64,50.95,70.99,41.68,62z M62.26,74.68c-2.23-4.37-6.75-10.29-13.95-17.5
		C41.4,50.28,36.6,47.17,31.94,44.36c-3.48-2.11-7.79-1.73-9.08,2.14l-0.29,0.87c0.29-0.09,0.63-0.16,1.03-0.18h0.15
		c3.9,0,11.03,4.76,19.62,13.09c6.96,6.76,15.91,18.27,16.04,23.73l0.73-0.24C64,82.47,64.12,78.31,62.26,74.68z"/>
</g>
<g>
	<path class="st0" d="M39.47,359.46l-7.8,5.09l3.24,2.14c1.66,1.1,2.12,3.33,1.02,4.99c-0.7,1.05-1.84,1.62-3.01,1.62
		c-0.68,0-1.37-0.2-1.98-0.6l-5.44-3.6v-5.12c0.02-0.01,0.03-0.02,0.05-0.03l10.95-7.08c0.55-0.35,0.72-1.1,0.35-1.66
		c-0.36-0.55-1.1-0.72-1.66-0.35l-9.7,6.27v-8.72c0-0.66-0.54-1.2-1.2-1.2s-1.2,0.54-1.2,1.2v8.64l-9.56-5.87
		c-0.56-0.35-1.31-0.18-1.65,0.39c-0.35,0.56-0.18,1.3,0.39,1.65l10.82,6.65v5.62l-5.11,2.96c-0.56,0.32-1.18,0.48-1.79,0.48
		c-1.24,0-2.46-0.64-3.12-1.8c-1-1.72-0.4-3.92,1.32-4.92l2.79-1.61l-7.48-4.99c-2.21-1.47-2.81-4.45-1.34-6.66
		c1.47-2.21,4.45-2.8,6.66-1.34l4.63,3.08v-3.69c0-2.65,2.15-4.8,4.8-4.8c2.64,0,4.8,2.15,4.8,4.8v3.68l4.99-3.26
		c2.22-1.45,5.2-0.82,6.65,1.4C42.33,355.04,41.69,358.01,39.47,359.46z"/>
	<path class="st0" d="M25.5,369.1v17.45c0,0.66-0.54,1.2-1.2,1.2s-1.2-0.54-1.2-1.2v-17.07"/>
</g>
<g>
	<path class="st0" d="M121.12,256.81c-0.55,1.91-2.54,3.01-4.46,2.46l-3.09-0.89l1.61,8.86c0.47,2.6-1.26,5.1-3.87,5.58
		c-2.61,0.48-5.11-1.25-5.58-3.87l-1-5.47l-2.67,2.56c-1.91,1.85-4.95,1.79-6.78-0.11c-1.85-1.91-1.78-4.95,0.12-6.79l2.64-2.56
		l-5.81-1.33c-2.58-0.59-4.2-3.17-3.61-5.76c0.59-2.58,3.16-4.2,5.76-3.61l9.08,2.08l-0.72-3.82c-0.36-1.96,0.93-3.84,2.89-4.2
		c1.23-0.23,2.44,0.21,3.25,1.05c0.48,0.49,0.81,1.12,0.94,1.85l1.16,6.21l-3.72,3.72c-0.02-0.01-0.04-0.02-0.06-0.02l-12.75-2.74
		c-0.65-0.13-1.29,0.28-1.43,0.92c-0.13,0.65,0.28,1.29,0.92,1.42l11.3,2.43l-6.17,6.17c-0.48,0.47-0.48,1.22,0,1.69
		c0.47,0.48,1.22,0.48,1.69,0l6.11-6.11l2.61,10.92c0.16,0.64,0.81,1.05,1.45,0.89c0.64-0.16,1.04-0.81,0.88-1.45l-2.95-12.35
		l3.88-3.88l5.87,1.68c0.63,0.18,1.17,0.52,1.6,0.95C121.11,254.21,121.49,255.52,121.12,256.81z"/>
	<path class="st0" d="M112.78,250.67l12.16-12.16c0.47-0.48,0.47-1.23,0-1.7c-0.47-0.47-1.22-0.47-1.69,0l-12.25,12.25"/>
</g>
<g>
	<path class="st0" d="M300.36,305.54c-0.55,1.92-2.54,3.02-4.46,2.47l-3.1-0.89l1.61,8.86c0.48,2.6-1.25,5.1-3.86,5.58
		c-2.61,0.47-5.11-1.26-5.59-3.87l-0.98-5.46l-2.67,2.56c-1.91,1.85-4.95,1.78-6.78-0.12c-1.85-1.91-1.79-4.95,0.11-6.78l2.65-2.56
		l-5.81-1.33c-2.58-0.6-4.2-3.17-3.61-5.76s3.16-4.2,5.76-3.61l9.07,2.08l-0.7-3.82c-0.36-1.96,0.93-3.84,2.88-4.2
		c1.24-0.23,2.45,0.21,3.26,1.05c0.48,0.49,0.81,1.12,0.94,1.84l1.15,6.22l-3.71,3.71c-0.02,0-0.04-0.01-0.06-0.02l-12.75-2.73
		c-0.65-0.14-1.29,0.27-1.43,0.92c-0.13,0.64,0.28,1.29,0.92,1.42l11.3,2.43l-6.17,6.17c-0.48,0.47-0.48,1.22,0,1.69
		c0.47,0.47,1.22,0.47,1.69,0l6.11-6.11l2.61,10.92c0.16,0.64,0.8,1.04,1.45,0.88c0.64-0.14,1.04-0.8,0.88-1.44l-2.96-12.35
		l3.89-3.89l5.87,1.69c0.63,0.18,1.17,0.52,1.6,0.95C300.35,302.95,300.72,304.27,300.36,305.54z"/>
	<path class="st0" d="M292.02,299.4l12.16-12.16c0.47-0.47,0.47-1.22,0-1.69c-0.47-0.48-1.22-0.48-1.7,0l-12.25,12.25"/>
</g>
<circle class="st0" cx="327.65" cy="70.61" r="3.86"/>
<circle class="st0" cx="268.79" cy="212.07" r="3.86"/>
<circle class="st0" cx="166.67" cy="227.91" r="3.86"/>
<circle class="st0" cx="147.87" cy="7.45" r="3.86"/>
<circle class="st0" cx="225.79" cy="35.69" r="3.86"/>
<circle class="st0" cx="266.05" cy="230.76" r="2.71"/>
<circle class="st0" cx="337.39" cy="59.39" r="2.71"/>
<circle class="st0" cx="94.71" cy="88.95" r="3.86"/>
<circle class="st0" cx="104.45" cy="77.74" r="2.71"/>
<circle class="st0" cx="35.45" cy="18.74" r="2.71"/>
<circle class="st0" cx="292.06" cy="228.05" r="2.71"/>
<circle class="st0" cx="5.14" cy="313.1" r="2.71"/>
<circle class="st0" cx="218.73" cy="46.86" r="2.71"/>
<circle class="st0" cx="189.41" cy="133.84" r="3.86"/>
<circle class="st0" cx="191.43" cy="146.9" r="2.71"/>
<circle class="st0" cx="207.11" cy="138.81" r="2.71"/>
<circle class="st0" cx="11.68" cy="257.33" r="3.86"/>
<circle class="st0" cx="13.7" cy="270.39" r="2.71"/>
<circle class="st0" cx="29.37" cy="262.3" r="2.71"/>
<circle class="st0" cx="332.16" cy="7.45" r="2.71"/>
<circle class="st0" cx="4.55" cy="71.09" r="2.71"/>
<circle class="st0" cx="333.77" cy="312.58" r="3.86"/>
<circle class="st0" cx="258.91" cy="8.21" r="3.86"/>
<circle class="st0" cx="271.96" cy="6.19" r="2.71"/>
<circle class="st0" cx="81.74" cy="293.2" r="2.71"/>
<circle class="st0" cx="78.74" cy="372.2" r="2.71"/>
<circle class="st0" cx="278.01" cy="83.92" r="2.71"/>
<circle class="st0" cx="341.16" cy="169.51" r="2.71"/>
<circle class="st0" cx="263.87" cy="382.51" r="2.71"/>
<g>
	<circle class="st0" cx="40.91" cy="130.67" r="3.86"/>
	<circle class="st0" cx="37.61" cy="143.96" r="2.71"/>
</g>
<g>
	<circle class="st0" cx="15.21" cy="171.57" r="3.86"/>
	<circle class="st0" cx="7.43" cy="160.3" r="2.71"/>
</g>
<circle class="st0" cx="69.91" cy="360.02" r="3.86"/>
<circle class="st0" cx="66.6" cy="373.31" r="2.71"/>
<circle class="st0" cx="334.86" cy="326.3" r="2.71"/>
<g>
	<path class="st0" d="M324.07,248.89c0.04,0.61-0.43,1.15-1.04,1.19c-4.3,0.3-4.56,3.87-4.58,4.28c-0.02,0.59-0.51,1.07-1.11,1.07
		h-0.03c-0.61-0.02-1.09-0.53-1.08-1.14c0.06-2.06,1.51-6.07,6.65-6.43C323.5,247.82,324.02,248.28,324.07,248.89z"/>
	<path class="st0" d="M336.72,249.09c-1.59-11.03-6.96-18.79-13.62-18.79c-6.85,0-11.82,7.36-13.62,18.79
		c-1.71,10.9,3.77,19.97,13.62,19.97C332.95,269.06,338.3,260.01,336.72,249.09z M323.21,263.86c-4.94,0-8.94-4-8.94-8.94
		c0-4.95,4-8.95,8.94-8.95c4.95,0,8.95,4,8.95,8.95C332.16,259.85,328.16,263.86,323.21,263.86z"/>
	<path class="st0" d="M324.07,248.89c0.04,0.61-0.43,1.15-1.04,1.19c-4.3,0.3-4.56,3.87-4.58,4.28c-0.02,0.59-0.51,1.07-1.11,1.07
		h-0.03c-0.61-0.02-1.09-0.53-1.08-1.14c0.06-2.06,1.51-6.07,6.65-6.43C323.5,247.82,324.02,248.28,324.07,248.89z"/>
	<g>
		<path class="st0" d="M324.07,248.89c0.04,0.61-0.43,1.15-1.04,1.19c-4.3,0.3-4.56,3.87-4.58,4.28c-0.02,0.59-0.51,1.07-1.11,1.07
			h-0.03c-0.61-0.02-1.09-0.53-1.08-1.14c0.06-2.06,1.51-6.07,6.65-6.43C323.5,247.82,324.02,248.28,324.07,248.89z"/>
	</g>
</g>
<g>
	<path class="st0" d="M39.07,311.97c0.04,0.61-0.42,1.14-1.04,1.18c-4.3,0.31-4.56,3.88-4.58,4.28c-0.02,0.6-0.51,1.07-1.11,1.07
		h-0.03c-0.61-0.02-1.09-0.52-1.08-1.13c0.06-2.06,1.51-6.07,6.65-6.44C38.5,310.9,39.02,311.35,39.07,311.97z"/>
	<path class="st0" d="M51.73,312.15c-1.59-11.03-6.96-18.78-13.62-18.78c-6.86,0-11.83,7.35-13.62,18.78
		c-1.71,10.9,3.78,19.98,13.62,19.98C47.95,332.14,53.3,323.07,51.73,312.15z M38.09,326.87c-4.94,0-8.94-4.01-8.94-8.95
		c0-4.94,4-8.95,8.94-8.95c4.95,0,8.95,4.01,8.95,8.95C47.04,322.86,43.04,326.87,38.09,326.87z"/>
	<path class="st0" d="M39.07,311.97c0.04,0.61-0.42,1.14-1.04,1.18c-4.3,0.31-4.56,3.88-4.58,4.28c-0.02,0.6-0.51,1.07-1.11,1.07
		h-0.03c-0.61-0.02-1.09-0.52-1.08-1.13c0.06-2.06,1.51-6.07,6.65-6.44C38.5,310.9,39.02,311.35,39.07,311.97z"/>
	<g>
		<path class="st0" d="M39.07,311.97c0.04,0.61-0.42,1.14-1.04,1.18c-4.3,0.31-4.56,3.88-4.58,4.28c-0.02,0.6-0.51,1.07-1.11,1.07
			h-0.03c-0.61-0.02-1.09-0.52-1.08-1.13c0.06-2.06,1.51-6.07,6.65-6.44C38.5,310.9,39.02,311.35,39.07,311.97z"/>
	</g>
</g>
<g>
	<path class="st0" d="M176.84,281.38c-0.13,0.59-0.74,0.96-1.33,0.83c-5.41-1.25-8.58,0.65-8.71,0.74
		c-0.19,0.11-0.38,0.17-0.59,0.17c-0.36,0-0.73-0.19-0.93-0.52c-0.33-0.52-0.18-1.2,0.33-1.52c0.17-0.1,4.03-2.5,10.4-1.03
		C176.61,280.18,176.98,280.78,176.84,281.38z"/>
	<path class="st0" d="M184.04,290.35c0.37,0.49,0.28,1.19-0.2,1.57c-0.45,0.35-1.37,0.78-2.57,0.78c-0.52,0-1.08-0.07-1.68-0.27
		c-0.58-0.19-0.9-0.82-0.72-1.4c0.2-0.58,0.82-0.9,1.4-0.72c1.36,0.45,2.18-0.12,2.21-0.16
		C182.97,289.78,183.66,289.87,184.04,290.35z"/>
	<path class="st0" d="M217.68,239.95c-1.59-1.59-4.16-1.59-5.73,0l-19.99,19.99c-10.93-8.15-26.47-7.26-36.39,2.65
		c-10.9,10.9-10.9,28.57,0,39.47c10.9,10.9,28.56,10.9,39.46,0c9.92-9.93,10.82-25.46,2.67-36.39l19.99-19.99
		C219.27,244.11,219.27,241.54,217.68,239.95z M178.88,294.24c-3.29-1.09-3.38,3.27-6.84,4.38c-2.57,0.83-5.82-1.34-4.39-4.44
		c2.63-5.71-1.19-7.11-3.02-8.06c-2.34-1.21-3.03-5.42,0.3-7.13c2.88-1.48,12.41-2.36,14.25,1.2c1.09,2.12-0.74,3.58,0.37,5.4
		c1.58,2.59,4.83,0.38,6.27,2.8C187.99,291.99,184.09,295.96,178.88,294.24z"/>
	<path class="st0" d="M176.84,281.38c-0.13,0.59-0.74,0.96-1.33,0.83c-5.41-1.25-8.58,0.65-8.71,0.74
		c-0.19,0.11-0.38,0.17-0.59,0.17c-0.36,0-0.73-0.19-0.93-0.52c-0.33-0.52-0.18-1.2,0.33-1.52c0.17-0.1,4.03-2.5,10.4-1.03
		C176.61,280.18,176.98,280.78,176.84,281.38z"/>
	<path class="st0" d="M183.84,291.92c-0.45,0.35-1.37,0.78-2.57,0.78c-0.52,0-1.08-0.07-1.68-0.27c-0.58-0.19-0.9-0.82-0.72-1.4
		c0.2-0.58,0.82-0.9,1.4-0.72c1.36,0.45,2.18-0.12,2.21-0.16c0.49-0.37,1.17-0.28,1.56,0.2
		C184.41,290.84,184.32,291.54,183.84,291.92z"/>
	<circle class="st0" cx="214.69" cy="242.95" r="2.33"/>
	<g>
		<path class="st0" d="M175.27,260.06c-12.32,0-22.35,10.03-22.35,22.35c0,12.33,10.03,22.35,22.35,22.35s22.35-10.02,22.35-22.35
			C197.62,270.09,187.59,260.06,175.27,260.06z M175.27,302.54c-11.1,0-20.13-9.02-20.13-20.13c0-11.1,9.03-20.12,20.13-20.12
			c11.1,0,20.13,9.02,20.13,20.12C195.4,293.51,186.36,302.54,175.27,302.54z"/>
	</g>
</g>
</svg>
